<?xml version="1.0" encoding="iso-8859-1"?>
<svg version="1.1" xmlns="http://www.w3.org/2000/svg" x="0px" y="0px"
	 viewBox="0 0 23 23" style="enable-background:new 0 0 23 23;" xml:space="preserve">
			<path d="M11.502 0A8.721 8.721 0 0 0 2.79 8.717c0 4.681 8.035 13.752 8.376 14.134a.449.449 0 0 0 .668 0c.34-.386 8.376-9.453 8.376-14.134A8.722 8.722 0 0 0 11.502 0zm0 21.869C9.97 20.075 3.687 12.546 3.687 8.713a7.816 7.816 0 1 1 15.63 0c0 3.833-6.281 11.371-7.815 13.156z" fill="#fff"></path><path d="M11.66 4.372a4.722 4.722 0 1 0 4.725 4.722 4.73 4.73 0 0 0-4.726-4.722zm0 8.551a3.825 3.825 0 1 1 0-7.65 3.825 3.825 0 0 1 0 7.65z" fill="#fff"></path>
</svg>



