<?xml version="1.0" encoding="iso-8859-1"?>
<svg version="1.1" xmlns="http://www.w3.org/2000/svg" x="0px" y="0px"
	 viewBox="0 0 23 23" style="enable-background:new 0 0 23 23;" xml:space="preserve">
<path fill="#333" d="M22.397 17.743l-4.655-3.105a1.359 1.359 0 0 0-1.82.296l-1.356 1.743a.58.58 0 0 1-.743.157l-.258-.142c-.855-.466-1.92-1.047-4.063-3.191-2.143-2.145-2.725-3.21-3.191-4.063L6.17 9.18a.58.58 0 0 1 .153-.746L8.065 7.08a1.36 1.36 0 0 0 .296-1.82L5.257.604a1.352 1.352 0 0 0-1.822-.41l-1.947 1.17c-.612.359-1.06.941-1.252 1.624-.701 2.554-.174 6.963 6.32 13.457 5.165 5.165 9.01 6.554 11.653 6.554a6.793 6.793 0 0 0 1.802-.235 2.743 2.743 0 0 0 1.625-1.253l1.17-1.945a1.352 1.352 0 0 0-.41-1.823zm-.25 1.43l-1.169 1.946a1.981 1.981 0 0 1-1.169.906c-2.358.648-6.477.112-12.711-6.122C.864 9.668.328 5.549.975 3.19c.14-.493.465-.912.907-1.17L3.83.853a.586.586 0 0 1 .79.178l1.687 2.531 1.416 2.123a.59.59 0 0 1-.128.79L5.85 7.831a1.341 1.341 0 0 0-.356 1.721l.139.252c.49.898 1.099 2.016 3.322 4.239 2.224 2.223 3.34 2.832 4.239 3.322l.252.138a1.341 1.341 0 0 0 1.721-.355l1.356-1.743a.59.59 0 0 1 .79-.128l4.654 3.105c.262.173.34.522.178.79zM13.033 3.835a6.523 6.523 0 0 1 6.515 6.516.383.383 0 1 0 .767 0 7.29 7.29 0 0 0-7.282-7.283.383.383 0 1 0 0 .767z"></path><path fill="#333" d="M13.033 6.135a4.221 4.221 0 0 1 4.216 4.216.383.383 0 0 0 .766 0 4.988 4.988 0 0 0-4.982-4.983.383.383 0 1 0 0 .767z"></path><path fill="#333" d="M13.033 8.434a1.919 1.919 0 0 1 1.916 1.917.383.383 0 1 0 .767 0 2.686 2.686 0 0 0-2.683-2.683.383.383 0 1 0 0 .766z"></path>
</svg>




