<?xml version="1.0" encoding="iso-8859-1"?>
<svg version="1.1" xmlns="http://www.w3.org/2000/svg" x="0px" y="0px"
	 viewBox="0 0 23 23" style="enable-background:new 0 0 23 23;" xml:space="preserve">
<path d="M22.082 7.024c-1.213-2.827-3.273-4.883-6.124-6.1a11.304 11.304 0 0 0-4.477-.917c-1.56 0-3.04.307-4.464.918C4.19 2.137 2.12 4.192.905 7.024A11.191 11.191 0 0 0 0 11.488c0 1.56.297 3.058.905 4.477 1.215 2.832 3.285 4.899 6.112 6.111 1.423.611 2.905.918 4.464.918 1.56 0 3.052-.31 4.477-.918 2.85-1.215 4.911-3.284 6.124-6.111A11.25 11.25 0 0 0 23 11.488c0-1.56-.307-3.04-.918-4.464zm-1.836 9.544a10.09 10.09 0 0 1-3.697 3.685 9.905 9.905 0 0 1-5.068 1.358 9.739 9.739 0 0 1-3.923-.805c-1.245-.54-2.32-1.251-3.22-2.15-.899-.9-1.614-1.985-2.15-3.232a9.9 9.9 0 0 1-.792-3.936c0-1.824.448-3.511 1.346-5.055.9-1.55 2.138-2.78 3.684-3.685a9.828 9.828 0 0 1 5.055-1.358c1.824 0 3.52.456 5.068 1.358a10.12 10.12 0 0 1 3.697 3.685 9.829 9.829 0 0 1 1.358 5.055c0 1.823-.45 3.523-1.358 5.08z" fill="#fff"></path>
			<path d="M12.21 11.387V4.873c0-.39-.34-.704-.729-.704a.709.709 0 0 0-.692.704v6.615c0 .012.026.063.026.1a.657.657 0 0 0 .188.566l3.76 3.76a.715.715 0 0 0 .969 0 .678.678 0 0 0 0-.98l-3.521-3.547z" fill="#fff"></path>

</svg>



